<svg xmlns="http://www.w3.org/2000/svg" width="33" height="33" viewBox="0 0 33 33" fill="none">
  <g clip-path="url(#clip0_22_647)">
    <path d="M16.1062 32.8896C24.9428 32.8896 32.1062 25.7262 32.1062 16.8896C32.1062 8.05309 24.9428 0.889648 16.1062 0.889648C7.26964 0.889648 0.106201 8.05309 0.106201 16.8896C0.106201 25.7262 7.26964 32.8896 16.1062 32.8896Z" fill="#627EEA"/>
    <path d="M16.2303 3.61816L16.0566 4.23831V21.8755L16.2303 22.0492L24.4163 17.212L16.2303 3.61816Z" fill="#C0CBF6"/>
    <path d="M16.2302 3.61816L8.04419 17.212L16.2302 22.0492V13.491V3.61816Z" fill="white"/>
    <path d="M16.2302 23.5872L16.131 23.7112V29.9872L16.2302 30.2849L24.4163 18.75L16.2302 23.5872Z" fill="#C0CBF6"/>
    <path d="M16.2302 30.2849V23.5872L8.04419 18.75L16.2302 30.2849Z" fill="white"/>
    <path d="M16.2302 22.0494L24.4163 17.2122L16.2302 13.4912V22.0494Z" fill="#8197EE"/>
    <path d="M8.04419 17.2122L16.2302 22.0494V13.4912L8.04419 17.2122Z" fill="#C0CBF6"/>
  </g>
  <defs>
    <clipPath id="clip0_22_647">
      <rect width="32" height="32" fill="white" transform="translate(0.106201 0.889648)"/>
    </clipPath>
  </defs>
</svg>