<svg width="37" height="36" viewBox="0 0 37 36" fill="none" xmlns="http://www.w3.org/2000/svg">
<g clip-path="url(#clip0_9_1060)">
<path d="M13.8176 26.477C13.8176 26.3409 13.6635 26.2453 13.4801 26.2633C13.308 26.2633 13.1718 26.3578 13.1718 26.477C13.1718 26.6132 13.308 26.7088 13.5093 26.6908C13.6803 26.6897 13.8176 26.5952 13.8176 26.477ZM11.9726 26.2104C11.931 26.3285 12.0502 26.4658 12.228 26.5007C12.2926 26.5325 12.3672 26.538 12.4358 26.516C12.5044 26.494 12.5618 26.4461 12.5958 26.3825C12.6318 26.2644 12.5182 26.1272 12.3405 26.0743C12.2731 26.05 12.1992 26.0502 12.132 26.0749C12.0647 26.0995 12.0083 26.1471 11.9726 26.2093V26.2104ZM14.5938 26.1035C14.4217 26.1452 14.3036 26.2577 14.3205 26.3938C14.3385 26.5119 14.4926 26.5895 14.6703 26.5479C14.8481 26.5063 14.9606 26.3938 14.9437 26.2745C14.9268 26.1553 14.766 26.0912 14.5938 26.1035ZM18.4976 3.37854C16.5837 3.33828 14.6814 3.68472 12.9045 4.3971C11.1277 5.10949 9.51294 6.17317 8.15695 7.52443C6.80096 8.8757 5.73164 10.4867 5.01306 12.2611C4.29447 14.0354 3.94139 15.9365 3.97497 17.8505C3.94998 20.9719 4.90763 24.0219 6.71227 26.5688C8.51692 29.1156 11.0771 31.0302 14.0302 32.0413C14.7896 32.1774 15.0562 31.7038 15.0562 31.3235C15.0562 30.9557 15.0382 28.9273 15.0382 27.6808C15.0382 27.6808 10.8858 28.5707 10.0128 25.9134C10.0128 25.9134 9.33784 24.1865 8.36359 23.7422C8.36359 23.7422 7.00459 22.8107 8.45809 22.8287C8.93144 22.8921 9.38401 23.0629 9.7812 23.3281C10.1784 23.5933 10.5097 23.9458 10.7497 24.3587C10.948 24.7282 11.2184 25.0542 11.5449 25.3174C11.8714 25.5806 12.2473 25.7757 12.6505 25.891C13.0537 26.0064 13.4759 26.0398 13.8922 25.9891C14.3085 25.9385 14.7105 25.8049 15.0742 25.5962C15.151 24.8403 15.4864 24.1341 16.0237 23.597C12.7072 23.2292 9.36147 22.7488 9.36147 17.0417C9.32878 16.3926 9.43705 15.7442 9.67883 15.141C9.92061 14.5378 10.2902 13.9942 10.7621 13.5474C10.3126 12.2326 10.3675 10.7977 10.9162 9.52104C12.1537 9.13516 15.0101 11.123 15.0101 11.123C16.2236 10.7875 17.477 10.618 18.7361 10.619C19.9952 10.618 21.2486 10.7875 22.4621 11.123C22.4621 11.123 25.3162 9.12954 26.556 9.52104C27.1055 10.7983 27.1604 12.2342 26.7101 13.5497C27.1998 13.9892 27.5898 14.5284 27.8538 15.1311C28.1179 15.7338 28.25 16.386 28.2412 17.0439C28.2412 22.769 24.747 23.2258 21.4305 23.5993C21.7879 23.9579 22.0635 24.3896 22.2383 24.8648C22.413 25.34 22.4829 25.8474 22.443 26.3522C22.4373 28.3535 22.425 30.8285 22.425 31.3123C22.425 31.6982 22.6983 32.1662 23.451 32.03C26.3942 31.0207 28.9426 29.1058 30.7308 26.5595C32.5191 24.0131 33.4556 20.9662 33.4061 17.855C33.3974 15.9198 33.0027 14.0058 32.245 12.225C31.4873 10.4443 30.3818 8.8326 28.9934 7.48444C27.605 6.13627 25.9616 5.0787 24.1593 4.37367C22.3571 3.66864 20.4322 3.33033 18.4976 3.37854ZM9.74172 23.8367C9.66409 23.8963 9.68209 24.0324 9.78334 24.1449C9.87784 24.2394 10.0151 24.281 10.0916 24.2045C10.1692 24.1449 10.1512 24.0088 10.05 23.8963C9.95547 23.8007 9.81822 23.759 9.74172 23.8367ZM9.10047 23.3563C9.05884 23.4339 9.11847 23.5284 9.23659 23.588C9.25564 23.6022 9.27735 23.6124 9.30042 23.618C9.3235 23.6235 9.34746 23.6244 9.37087 23.6205C9.39429 23.6166 9.41669 23.6081 9.43672 23.5953C9.45675 23.5826 9.47401 23.566 9.48747 23.5464C9.52909 23.4688 9.46947 23.3743 9.35134 23.3147C9.23772 23.2787 9.14209 23.2967 9.10047 23.3563ZM11.0231 25.4679C10.9286 25.5455 10.9635 25.7233 11.1007 25.8358C11.2368 25.9719 11.409 25.9899 11.4866 25.8954C11.5642 25.8178 11.5282 25.64 11.409 25.5275C11.2785 25.3914 11.0996 25.3734 11.0231 25.4679ZM10.3481 24.596C10.2536 24.6557 10.2536 24.8098 10.3481 24.9459C10.4426 25.082 10.6035 25.1417 10.6856 25.082C10.7318 25.032 10.7575 24.9663 10.7575 24.8981C10.7575 24.8299 10.7318 24.7643 10.6856 24.7142C10.5956 24.578 10.4426 24.5184 10.3481 24.596Z" fill="#91929E"/>
</g>
<defs>
<clipPath id="clip0_9_1060">
<rect width="36" height="36" fill="white" transform="translate(0.599976)"/>
</clipPath>
</defs>
</svg>
