<svg xmlns="http://www.w3.org/2000/svg" width="65" height="65" viewBox="0 0 65 65" fill="none">
  <g clip-path="url(#clip0_22_565)">
    <path fill-rule="evenodd" clip-rule="evenodd" d="M32.1062 6.88965C17.7468 6.88965 6.1062 18.5302 6.1062 32.8896C6.1062 34.5465 4.76305 35.8896 3.1062 35.8896C1.44935 35.8896 0.106201 34.5465 0.106201 32.8896C0.106201 15.2165 14.4331 0.889648 32.1062 0.889648C49.7793 0.889648 64.1062 15.2165 64.1062 32.8896C64.1062 50.5627 49.7793 64.8896 32.1062 64.8896C23.2348 64.8896 15.2019 61.2757 9.409 55.447C8.24103 54.2719 8.24687 52.3724 9.42203 51.2044C10.5972 50.0364 12.4967 50.0424 13.6647 51.2174C18.3775 55.9594 24.8968 58.8896 32.1062 58.8896C46.4656 58.8896 58.1062 47.249 58.1062 32.8896C58.1062 18.5302 46.4656 6.88965 32.1062 6.88965Z" fill="url(#paint0_linear_22_565)"/>
    <path fill-rule="evenodd" clip-rule="evenodd" d="M30.1062 16.8896C30.1062 15.2327 31.4493 13.8896 33.1062 13.8896C34.7631 13.8896 36.1062 15.2327 36.1062 16.8896V19.8896H41.1062C42.7631 19.8896 44.1062 21.2327 44.1062 22.8896C44.1062 24.5465 42.7631 25.8896 41.1062 25.8896H27.1062V29.8896H38.1062C41.4199 29.8896 44.1062 32.5759 44.1062 35.8896V39.8896C44.1062 43.2033 41.4199 45.8896 38.1062 45.8896H36.1062V48.8896C36.1062 50.5465 34.7631 51.8896 33.1062 51.8896C31.4493 51.8896 30.1062 50.5465 30.1062 48.8896V45.8896H24.1062C22.4493 45.8896 21.1062 44.5465 21.1062 42.8896C21.1062 41.2327 22.4493 39.8896 24.1062 39.8896H38.1062V35.8896H27.1062C23.7925 35.8896 21.1062 33.2033 21.1062 29.8896V25.8896C21.1062 22.5759 23.7925 19.8896 27.1062 19.8896H30.1062V16.8896Z" fill="url(#paint1_linear_22_565)"/>
  </g>
  <defs>
    <linearGradient id="paint0_linear_22_565" x1="32.1073" y1="1.45456" x2="32.1073" y2="114.005" gradientUnits="userSpaceOnUse">
      <stop offset="0.1385" stop-color="#03D1CF" stop-opacity="0.988"/>
      <stop offset="1" stop-color="#4E09F8"/>
    </linearGradient>
    <linearGradient id="paint1_linear_22_565" x1="32.6066" y1="14.225" x2="32.6066" y2="81.0517" gradientUnits="userSpaceOnUse">
      <stop offset="0.1385" stop-color="#03D1CF" stop-opacity="0.988"/>
      <stop offset="1" stop-color="#4E09F8"/>
    </linearGradient>
    <clipPath id="clip0_22_565">
      <rect width="64" height="64" fill="white" transform="translate(0.106201 0.889648)"/>
    </clipPath>
  </defs>
</svg>