<svg width="33" height="33" viewBox="0 0 33 33" fill="none" xmlns="http://www.w3.org/2000/svg">
<g clip-path="url(#clip0_9_969)">
<path d="M16.6 32.4004C25.4 32.4004 32.6 25.2004 32.6 16.4004C32.6 7.60039 25.4 0.400391 16.6 0.400391C7.80001 0.400391 0.600006 7.60039 0.600006 16.4004C0.600006 25.2004 7.72001 32.4004 16.6 32.4004Z" fill="#2775CA"/>
<path d="M20.9999 18.9606C20.9999 16.6406 19.5599 15.8406 16.7599 15.5206C14.7599 15.2806 14.3599 14.7206 14.3599 13.7606C14.3599 12.8006 14.9999 12.2406 16.3599 12.2406C17.5599 12.2406 18.1999 12.6406 18.5999 13.6806C18.6799 13.8406 18.8399 14.0006 19.0799 14.0006H20.1199C20.3599 14.0006 20.5999 13.8406 20.5999 13.5206V13.4406C20.3599 11.9206 19.0799 10.8006 17.5599 10.7206V9.12055C17.5599 8.88055 17.3199 8.64055 16.9999 8.56055H15.9599C15.7199 8.56055 15.4799 8.80055 15.3999 9.12055V10.6406C13.3999 10.8806 12.1199 12.2406 12.1199 13.9206C12.1199 16.1606 13.4799 16.9606 16.2799 17.3606C18.1199 17.6806 18.7599 18.0806 18.7599 19.2006C18.7599 20.3206 17.7999 21.0406 16.5199 21.0406C14.7599 21.0406 14.1999 20.3206 13.9599 19.2806C13.8799 19.0406 13.7199 18.8806 13.4799 18.8806H12.3599C12.1199 18.8806 11.8799 19.0406 11.8799 19.3606V19.4406C12.1199 21.1206 13.2399 22.3206 15.3999 22.6406V24.2406C15.3999 24.4806 15.6399 24.7206 15.9599 24.8006H16.9199C17.1599 24.8006 17.3999 24.5606 17.4799 24.2406V22.6406C19.6399 22.1606 20.9999 20.7206 20.9999 18.9606Z" fill="white"/>
<path d="M13.2399 25.9205C8.03995 24.0005 5.39995 18.3205 7.31995 13.1205C8.35995 10.4005 10.5199 8.16053 13.2399 7.20053C13.4799 7.12053 13.6399 6.80053 13.6399 6.56053V5.60053C13.6399 5.36053 13.4799 5.12053 13.2399 5.04053C13.1599 5.04053 13.0799 5.04053 12.9999 5.12053C6.67995 7.12053 3.15995 13.9205 5.23995 20.1605C6.43995 23.8405 9.31995 26.8005 12.9999 27.9205C13.1599 28.0005 13.4799 28.0005 13.5599 27.7605C13.5599 27.7605 13.5599 27.6805 13.6399 27.6805C13.7199 27.6005 13.7199 27.5205 13.7199 27.4405V26.4805C13.5599 26.3205 13.3999 26.0805 13.2399 25.9205ZM20.2799 5.12053C20.1199 5.04053 19.7999 5.04053 19.7199 5.28053C19.7199 5.28053 19.7199 5.36053 19.6399 5.36053C19.5599 5.44053 19.5599 5.52053 19.5599 5.60053V6.56053C19.5599 6.80053 19.7199 7.04053 19.9599 7.20053C25.1599 9.12053 27.7999 14.8005 25.8799 20.0005C24.8399 22.7205 22.6799 24.9605 19.9599 25.9205C19.7199 26.0005 19.5599 26.3205 19.5599 26.5605V27.6005C19.5599 27.8405 19.7199 28.0805 19.9599 28.1605C20.0399 28.1605 20.1199 28.1605 20.1999 28.0805C26.5199 26.0005 30.0399 19.2805 27.9599 12.8805C26.8399 9.20053 23.9599 6.32053 20.2799 5.12053Z" fill="white"/>
</g>
<defs>
<clipPath id="clip0_9_969">
<rect width="32" height="32" fill="white" transform="translate(0.600006 0.400391)"/>
</clipPath>
</defs>
</svg>
