<svg width="32" height="33" viewBox="0 0 32 33" fill="none" xmlns="http://www.w3.org/2000/svg">
<g clip-path="url(#clip0_9_950)">
<path d="M30.6417 20.0429C28.5482 28.3435 20.1746 33.3859 11.8784 31.3689C3.50471 29.2744 -1.535 20.8962 0.558416 12.5956C2.65183 4.29498 11.0255 -0.825025 19.3216 1.26952C27.6953 3.36407 32.7351 11.7423 30.6417 20.0429Z" fill="#50AF95"/>
<path d="M17.5384 18.414C17.4608 18.414 16.8406 18.4915 15.6 18.4915C14.592 18.4915 13.8942 18.4915 13.6616 18.414C9.86243 18.2588 6.99371 17.5606 6.99371 16.7849C6.99371 16.0091 9.86243 15.3109 13.6616 15.1558V17.7158C13.8942 17.7158 14.592 17.7934 15.6 17.7934C16.763 17.7934 17.3833 17.7158 17.4608 17.7158V15.0782C21.26 15.2334 24.1287 15.9315 24.1287 16.7073C24.1287 17.4831 21.3375 18.2588 17.5384 18.414ZM17.5384 14.8455V12.5182H22.8882V8.94971H8.38932V12.5182H13.7392V14.8455C9.39727 15.0782 6.14084 15.9315 6.14084 16.94C6.14084 17.9485 9.39727 18.8018 13.7392 19.0346V26.4818H17.6158V19.0346C21.9578 18.8018 25.1367 17.9485 25.1367 16.94C25.1367 15.9315 21.8803 15.0782 17.5384 14.8455Z" fill="white"/>
</g>
<defs>
<clipPath id="clip0_9_950">
<rect width="31.0303" height="32" fill="white" transform="translate(0.0848694 0.800293)"/>
</clipPath>
</defs>
</svg>
