<svg width="33" height="33" viewBox="0 0 33 33" fill="none" xmlns="http://www.w3.org/2000/svg">
<g clip-path="url(#clip0_9_926)">
<path d="M16.6 32.2002C25.4366 32.2002 32.6 25.0368 32.6 16.2002C32.6 7.36364 25.4366 0.200195 16.6 0.200195C7.76345 0.200195 0.600006 7.36364 0.600006 16.2002C0.600006 25.0368 7.76345 32.2002 16.6 32.2002Z" fill="#627EEA"/>
<path d="M16.7241 2.92871L16.5504 3.54886V21.186L16.7241 21.3597L24.9101 16.5225L16.7241 2.92871Z" fill="#C0CBF6"/>
<path d="M16.724 2.92871L8.53799 16.5225L16.724 21.3597V12.8015V2.92871Z" fill="white"/>
<path d="M16.724 22.8977L16.6248 23.0217V29.2977L16.724 29.5954L24.9101 18.0605L16.724 22.8977Z" fill="#C0CBF6"/>
<path d="M16.724 29.5954V22.8977L8.53799 18.0605L16.724 29.5954Z" fill="white"/>
<path d="M16.724 21.36L24.9101 16.5228L16.724 12.8018V21.36Z" fill="#8197EE"/>
<path d="M8.53799 16.5228L16.724 21.36V12.8018L8.53799 16.5228Z" fill="#C0CBF6"/>
</g>
<defs>
<clipPath id="clip0_9_926">
<rect width="32" height="32" fill="white" transform="translate(0.600006 0.200195)"/>
</clipPath>
</defs>
</svg>
