<svg width="162" height="48" viewBox="0 0 162 48" fill="none" xmlns="http://www.w3.org/2000/svg">
<g clip-path="url(#clip0_9_1036)">
<path d="M69.36 39.0003C69.168 39.0003 68.988 38.9283 68.82 38.7843C68.676 38.6403 68.604 38.4603 68.604 38.2443C68.604 38.1483 68.628 38.0403 68.676 37.9203L77.352 14.7003C77.424 14.4603 77.556 14.2563 77.748 14.0883C77.964 13.8963 78.252 13.8003 78.612 13.8003H82.536C82.896 13.8003 83.172 13.8963 83.364 14.0883C83.556 14.2563 83.7 14.4603 83.796 14.7003L92.472 37.9203C92.496 38.0403 92.508 38.1483 92.508 38.2443C92.508 38.4603 92.436 38.6403 92.292 38.7843C92.148 38.9283 91.98 39.0003 91.788 39.0003H88.656C88.32 39.0003 88.068 38.9283 87.9 38.7843C87.756 38.6163 87.66 38.4603 87.612 38.3163L85.92 33.9243H75.228L73.536 38.3163C73.488 38.4603 73.38 38.6163 73.212 38.7843C73.068 38.9283 72.828 39.0003 72.492 39.0003H69.36ZM76.488 29.7843H84.66L80.556 18.6603L76.488 29.7843ZM96.3009 39.0003C96.0609 39.0003 95.8569 38.9163 95.6889 38.7483C95.5209 38.5803 95.4369 38.3763 95.4369 38.1363V21.1803C95.4369 20.9163 95.5209 20.7003 95.6889 20.5323C95.8569 20.3643 96.0609 20.2803 96.3009 20.2803H99.2169C99.4569 20.2803 99.6609 20.3643 99.8289 20.5323C100.021 20.7003 100.117 20.9163 100.117 21.1803V22.6563C100.669 21.8883 101.377 21.3003 102.241 20.8923C103.129 20.4843 104.149 20.2803 105.301 20.2803H106.777C107.041 20.2803 107.245 20.3643 107.389 20.5323C107.557 20.7003 107.641 20.9043 107.641 21.1443V23.7363C107.641 23.9763 107.557 24.1803 107.389 24.3483C107.245 24.5163 107.041 24.6003 106.777 24.6003H103.969C102.817 24.6003 101.917 24.9243 101.269 25.5723C100.645 26.2203 100.333 27.1083 100.333 28.2363V38.1363C100.333 38.3763 100.249 38.5803 100.081 38.7483C99.9129 38.9163 99.6969 39.0003 99.4329 39.0003H96.3009ZM118.303 39.3603C116.575 39.3603 115.051 39.0363 113.731 38.3883C112.435 37.7403 111.415 36.8043 110.671 35.5803C109.951 34.3323 109.555 32.8323 109.483 31.0803C109.459 30.7203 109.447 30.2523 109.447 29.6763C109.447 29.0763 109.459 28.5843 109.483 28.2003C109.555 26.4483 109.951 24.9603 110.671 23.7363C111.415 22.4883 112.435 21.5403 113.731 20.8923C115.051 20.2443 116.575 19.9203 118.303 19.9203C119.839 19.9203 121.147 20.1363 122.227 20.5683C123.307 21.0003 124.195 21.5403 124.891 22.1883C125.587 22.8363 126.103 23.5203 126.439 24.2403C126.799 24.9363 126.991 25.5723 127.015 26.1483C127.039 26.4123 126.955 26.6283 126.763 26.7963C126.595 26.9403 126.391 27.0123 126.151 27.0123H122.983C122.743 27.0123 122.551 26.9523 122.407 26.8323C122.287 26.7123 122.167 26.5323 122.047 26.2923C121.687 25.3323 121.207 24.6603 120.607 24.2763C120.031 23.8683 119.287 23.6643 118.375 23.6643C117.175 23.6643 116.215 24.0483 115.495 24.8163C114.799 25.5603 114.427 26.7483 114.379 28.3803C114.331 29.2923 114.331 30.1323 114.379 30.9003C114.427 32.5563 114.799 33.7563 115.495 34.5003C116.215 35.2443 117.175 35.6163 118.375 35.6163C119.311 35.6163 120.067 35.4243 120.643 35.0403C121.219 34.6323 121.687 33.9483 122.047 32.9883C122.167 32.7483 122.287 32.5683 122.407 32.4483C122.551 32.3283 122.743 32.2683 122.983 32.2683H126.151C126.391 32.2683 126.595 32.3523 126.763 32.5203C126.955 32.6643 127.039 32.8683 127.015 33.1323C126.991 33.5643 126.871 34.0563 126.655 34.6083C126.463 35.1363 126.139 35.6883 125.683 36.2643C125.251 36.8163 124.699 37.3323 124.027 37.8123C123.355 38.2683 122.539 38.6403 121.579 38.9283C120.643 39.2163 119.551 39.3603 118.303 39.3603ZM131.669 39.0003C131.429 39.0003 131.225 38.9163 131.057 38.7483C130.889 38.5803 130.805 38.3763 130.805 38.1363V14.3043C130.805 14.0643 130.889 13.8603 131.057 13.6923C131.225 13.5243 131.429 13.4403 131.669 13.4403H134.873C135.137 13.4403 135.341 13.5243 135.485 13.6923C135.653 13.8603 135.737 14.0643 135.737 14.3043V22.5123C136.385 21.7443 137.177 21.1203 138.113 20.6403C139.049 20.1603 140.201 19.9203 141.569 19.9203C143.033 19.9203 144.305 20.2563 145.385 20.9283C146.489 21.5763 147.341 22.5003 147.941 23.7003C148.541 24.9003 148.841 26.3403 148.841 28.0203V38.1363C148.841 38.3763 148.757 38.5803 148.589 38.7483C148.421 38.9163 148.217 39.0003 147.977 39.0003H144.737C144.497 39.0003 144.293 38.9163 144.125 38.7483C143.957 38.5803 143.873 38.3763 143.873 38.1363V28.2363C143.873 26.8443 143.525 25.7523 142.829 24.9603C142.157 24.1683 141.173 23.7723 139.877 23.7723C138.629 23.7723 137.621 24.1683 136.853 24.9603C136.109 25.7523 135.737 26.8443 135.737 28.2363V38.1363C135.737 38.3763 135.653 38.5803 135.485 38.7483C135.341 38.9163 135.137 39.0003 134.873 39.0003H131.669ZM154.274 39.0003C154.034 39.0003 153.83 38.9163 153.662 38.7483C153.494 38.5803 153.41 38.3763 153.41 38.1363V21.1443C153.41 20.9043 153.494 20.7003 153.662 20.5323C153.83 20.3643 154.034 20.2803 154.274 20.2803H157.262C157.526 20.2803 157.73 20.3643 157.874 20.5323C158.042 20.7003 158.126 20.9043 158.126 21.1443V38.1363C158.126 38.3763 158.042 38.5803 157.874 38.7483C157.73 38.9163 157.526 39.0003 157.262 39.0003H154.274ZM154.13 17.1843C153.866 17.1843 153.65 17.1123 153.482 16.9683C153.338 16.8003 153.266 16.5843 153.266 16.3203V13.7283C153.266 13.4883 153.338 13.2843 153.482 13.1163C153.65 12.9483 153.866 12.8643 154.13 12.8643H157.406C157.67 12.8643 157.886 12.9483 158.054 13.1163C158.222 13.2843 158.306 13.4883 158.306 13.7283V16.3203C158.306 16.5843 158.222 16.8003 158.054 16.9683C157.886 17.1123 157.67 17.1843 157.406 17.1843H154.13Z" fill="white"/>
<mask id="mask0_9_1036" style="mask-type:luminance" maskUnits="userSpaceOnUse" x="0" y="0" width="49" height="48">
<path d="M48.1 0H0.0999756V48H48.1V0Z" fill="white"/>
</mask>
<g mask="url(#mask0_9_1036)">
<path d="M7.72539 0L4.93208 7.17592L2.41168 4.81605L4.27388 0.032107L7.72539 0Z" fill="#04CCCF"/>
<path d="M34.6632 18.3171L27.5354 0H20.6485L28.6752 20.6448L34.6632 18.3171Z" fill="url(#paint0_linear_9_1036)"/>
<path d="M31.2759 27.3234L39.3027 48.0003H46.2057L37.2639 25.0117L31.2759 27.3234Z" fill="url(#paint1_linear_9_1036)"/>
<path d="M17.9033 24.8348L27.5515 0H20.6645L9.78021 27.9813L17.9033 24.8348Z" fill="url(#paint2_linear_9_1036)"/>
<path d="M6.24844 37.0679L1.99426 48.0003H8.89727L14.3715 33.9053L6.24844 37.0679Z" fill="url(#paint3_linear_9_1036)"/>
<path d="M0.0999756 33.4721V37.7262L48.1 19.0721V14.8018L0.0999756 33.4721Z" fill="#04CCCF"/>
</g>
</g>
<defs>
<linearGradient id="paint0_linear_9_1036" x1="27.6533" y1="0.246983" x2="27.6533" y2="49.4547" gradientUnits="userSpaceOnUse">
<stop offset="0.1385" stop-color="#03D1CF" stop-opacity="0.988"/>
<stop offset="1" stop-color="#4E09F8"/>
</linearGradient>
<linearGradient id="paint1_linear_9_1036" x1="38.7371" y1="0.247283" x2="38.7371" y2="49.455" gradientUnits="userSpaceOnUse">
<stop offset="0.1385" stop-color="#03D1CF" stop-opacity="0.988"/>
<stop offset="1" stop-color="#4E09F8"/>
</linearGradient>
<linearGradient id="paint2_linear_9_1036" x1="18.6662" y1="0.246983" x2="18.6662" y2="49.4547" gradientUnits="userSpaceOnUse">
<stop offset="0.1385" stop-color="#03D1CF" stop-opacity="0.988"/>
<stop offset="1" stop-color="#4E09F8"/>
</linearGradient>
<linearGradient id="paint3_linear_9_1036" x1="8.18496" y1="0.247264" x2="8.18496" y2="49.4551" gradientUnits="userSpaceOnUse">
<stop offset="0.1385" stop-color="#03D1CF" stop-opacity="0.988"/>
<stop offset="1" stop-color="#4E09F8"/>
</linearGradient>
<clipPath id="clip0_9_1036">
<rect width="161" height="48" fill="white" transform="translate(0.0999756)"/>
</clipPath>
</defs>
</svg>
