<svg width="33" height="32" viewBox="0 0 33 32" fill="none" xmlns="http://www.w3.org/2000/svg">
<g clip-path="url(#clip0_9_989)">
<path d="M32.1078 19.8415C29.9493 28.4004 21.3149 33.5998 12.7606 31.5201C4.12629 29.3603 -1.07028 20.7214 1.08829 12.1624C3.24687 3.60345 11.8812 -1.67591 20.4355 0.483835C29.0698 2.64357 34.2664 11.2825 32.1078 19.8415Z" fill="#F7931A"/>
<path d="M23.3936 13.7619C23.7134 11.6822 22.1144 10.5623 19.9559 9.84237L20.6754 7.04271L18.9965 6.64276L18.3569 9.36243C17.8772 9.28244 17.4775 9.12246 16.9978 9.04247L17.7173 6.3228L16.0384 5.92285L15.3189 8.72251C14.9192 8.64252 14.5994 8.56253 14.1997 8.48254L11.8012 7.84261L11.3216 9.68239C11.3216 9.68239 12.6007 10.0024 12.5208 10.0024C13.0004 10.0824 13.4002 10.4823 13.3202 10.9622L12.5208 14.1619C12.6007 14.1619 12.6007 14.1619 12.6807 14.2418L12.6007 14.1619L11.4815 18.6413C11.4015 18.9613 11.0018 19.1213 10.682 19.0413L9.48278 18.7213L8.60336 20.6411L10.8419 21.201C11.2416 21.281 11.6413 21.441 12.0411 21.521L11.3216 24.3206L13.0005 24.7206L13.72 21.9209C14.1997 22.0809 14.5994 22.1609 15.0791 22.2409L14.3596 25.0405L16.0384 25.4405L16.758 22.6408C19.6361 23.2008 21.8746 22.9608 22.754 20.3211C23.4735 18.2414 22.754 16.9615 21.1551 16.2416C22.4342 16.0016 23.3136 15.0418 23.3936 13.7619ZM19.5561 19.2012C18.9965 21.281 15.4788 20.1611 14.2796 19.9212L15.239 16.1616C16.3582 16.4816 20.1158 17.0415 19.5561 19.2012ZM20.0358 13.7619C19.5561 15.6817 16.5981 14.7218 15.6387 14.4818L16.5181 11.1222C17.4775 11.2822 20.5954 11.7621 20.0358 13.7619Z" fill="white"/>
</g>
<defs>
<clipPath id="clip0_9_989">
<rect width="32" height="32" fill="white" transform="translate(0.600006)"/>
</clipPath>
</defs>
</svg>
