<svg xmlns="http://www.w3.org/2000/svg" width="162" height="49" viewBox="0 0 162 49" fill="none">
  <g clip-path="url(#clip0_22_796)">
    <path d="M69.3662 39.8894C69.1742 39.8894 68.9942 39.8174 68.8262 39.6734C68.6822 39.5294 68.6102 39.3494 68.6102 39.1334C68.6102 39.0374 68.6342 38.9294 68.6822 38.8094L77.3582 15.5894C77.4302 15.3494 77.5622 15.1454 77.7542 14.9774C77.9702 14.7854 78.2582 14.6894 78.6182 14.6894H82.5422C82.9022 14.6894 83.1782 14.7854 83.3702 14.9774C83.5622 15.1454 83.7062 15.3494 83.8022 15.5894L92.4782 38.8094C92.5022 38.9294 92.5142 39.0374 92.5142 39.1334C92.5142 39.3494 92.4422 39.5294 92.2982 39.6734C92.1542 39.8174 91.9862 39.8894 91.7942 39.8894H88.6622C88.3262 39.8894 88.0742 39.8174 87.9062 39.6734C87.7622 39.5054 87.6662 39.3494 87.6182 39.2054L85.9262 34.8134H75.2342L73.5422 39.2054C73.4942 39.3494 73.3862 39.5054 73.2182 39.6734C73.0742 39.8174 72.8342 39.8894 72.4982 39.8894H69.3662ZM76.4942 30.6734H84.6662L80.5622 19.5494L76.4942 30.6734ZM96.3071 39.8894C96.0671 39.8894 95.8631 39.8054 95.6951 39.6374C95.5271 39.4694 95.4431 39.2654 95.4431 39.0254V22.0694C95.4431 21.8054 95.5271 21.5894 95.6951 21.4214C95.8631 21.2534 96.0671 21.1694 96.3071 21.1694H99.2231C99.4631 21.1694 99.6671 21.2534 99.8351 21.4214C100.027 21.5894 100.123 21.8054 100.123 22.0694V23.5454C100.675 22.7774 101.383 22.1894 102.247 21.7814C103.135 21.3734 104.155 21.1694 105.307 21.1694H106.783C107.047 21.1694 107.251 21.2534 107.395 21.4214C107.563 21.5894 107.647 21.7934 107.647 22.0334V24.6254C107.647 24.8654 107.563 25.0694 107.395 25.2374C107.251 25.4054 107.047 25.4894 106.783 25.4894H103.975C102.823 25.4894 101.923 25.8134 101.275 26.4614C100.651 27.1094 100.339 27.9974 100.339 29.1254V39.0254C100.339 39.2654 100.255 39.4694 100.087 39.6374C99.9191 39.8054 99.7031 39.8894 99.4391 39.8894H96.3071ZM118.309 40.2494C116.581 40.2494 115.057 39.9254 113.737 39.2774C112.441 38.6294 111.421 37.6934 110.677 36.4694C109.957 35.2214 109.561 33.7214 109.489 31.9694C109.465 31.6094 109.453 31.1414 109.453 30.5654C109.453 29.9654 109.465 29.4734 109.489 29.0894C109.561 27.3374 109.957 25.8494 110.677 24.6254C111.421 23.3774 112.441 22.4294 113.737 21.7814C115.057 21.1334 116.581 20.8094 118.309 20.8094C119.845 20.8094 121.153 21.0254 122.233 21.4574C123.313 21.8894 124.201 22.4294 124.897 23.0774C125.593 23.7254 126.109 24.4094 126.445 25.1294C126.805 25.8254 126.997 26.4614 127.021 27.0374C127.045 27.3014 126.961 27.5174 126.769 27.6854C126.601 27.8294 126.397 27.9014 126.157 27.9014H122.989C122.749 27.9014 122.557 27.8414 122.413 27.7214C122.293 27.6014 122.173 27.4214 122.053 27.1814C121.693 26.2214 121.213 25.5494 120.613 25.1654C120.037 24.7574 119.293 24.5534 118.381 24.5534C117.181 24.5534 116.221 24.9374 115.501 25.7054C114.805 26.4494 114.433 27.6374 114.385 29.2694C114.337 30.1814 114.337 31.0214 114.385 31.7894C114.433 33.4454 114.805 34.6454 115.501 35.3894C116.221 36.1334 117.181 36.5054 118.381 36.5054C119.317 36.5054 120.073 36.3134 120.649 35.9294C121.225 35.5214 121.693 34.8374 122.053 33.8774C122.173 33.6374 122.293 33.4574 122.413 33.3374C122.557 33.2174 122.749 33.1574 122.989 33.1574H126.157C126.397 33.1574 126.601 33.2414 126.769 33.4094C126.961 33.5534 127.045 33.7574 127.021 34.0214C126.997 34.4534 126.877 34.9454 126.661 35.4974C126.469 36.0254 126.145 36.5774 125.689 37.1534C125.257 37.7054 124.705 38.2214 124.033 38.7014C123.361 39.1574 122.545 39.5294 121.585 39.8174C120.649 40.1054 119.557 40.2494 118.309 40.2494ZM131.675 39.8894C131.435 39.8894 131.231 39.8054 131.063 39.6374C130.895 39.4694 130.811 39.2654 130.811 39.0254V15.1934C130.811 14.9534 130.895 14.7494 131.063 14.5814C131.231 14.4134 131.435 14.3294 131.675 14.3294H134.879C135.143 14.3294 135.347 14.4134 135.491 14.5814C135.659 14.7494 135.743 14.9534 135.743 15.1934V23.4014C136.391 22.6334 137.183 22.0094 138.119 21.5294C139.055 21.0494 140.207 20.8094 141.575 20.8094C143.039 20.8094 144.311 21.1454 145.391 21.8174C146.495 22.4654 147.347 23.3894 147.947 24.5894C148.547 25.7894 148.847 27.2294 148.847 28.9094V39.0254C148.847 39.2654 148.763 39.4694 148.595 39.6374C148.427 39.8054 148.223 39.8894 147.983 39.8894H144.743C144.503 39.8894 144.299 39.8054 144.131 39.6374C143.963 39.4694 143.879 39.2654 143.879 39.0254V29.1254C143.879 27.7334 143.531 26.6414 142.835 25.8494C142.163 25.0574 141.179 24.6614 139.883 24.6614C138.635 24.6614 137.627 25.0574 136.859 25.8494C136.115 26.6414 135.743 27.7334 135.743 29.1254V39.0254C135.743 39.2654 135.659 39.4694 135.491 39.6374C135.347 39.8054 135.143 39.8894 134.879 39.8894H131.675ZM154.28 39.8894C154.04 39.8894 153.836 39.8054 153.668 39.6374C153.5 39.4694 153.416 39.2654 153.416 39.0254V22.0334C153.416 21.7934 153.5 21.5894 153.668 21.4214C153.836 21.2534 154.04 21.1694 154.28 21.1694H157.268C157.532 21.1694 157.736 21.2534 157.88 21.4214C158.048 21.5894 158.132 21.7934 158.132 22.0334V39.0254C158.132 39.2654 158.048 39.4694 157.88 39.6374C157.736 39.8054 157.532 39.8894 157.268 39.8894H154.28ZM154.136 18.0734C153.872 18.0734 153.656 18.0014 153.488 17.8574C153.344 17.6894 153.272 17.4734 153.272 17.2094V14.6174C153.272 14.3774 153.344 14.1734 153.488 14.0054C153.656 13.8374 153.872 13.7534 154.136 13.7534H157.412C157.676 13.7534 157.892 13.8374 158.06 14.0054C158.228 14.1734 158.312 14.3774 158.312 14.6174V17.2094C158.312 17.4734 158.228 17.6894 158.06 17.8574C157.892 18.0014 157.676 18.0734 157.412 18.0734H154.136Z" fill="white"/>
    <mask id="mask0_22_796" style="mask-type:luminance" maskUnits="userSpaceOnUse" x="0" y="0" width="49" height="49">
      <path d="M48.1062 0.889648H0.106201V48.8896H48.1062V0.889648Z" fill="white"/>
    </mask>
    <g mask="url(#mask0_22_796)">
      <path d="M7.73162 0.889648L4.93831 8.06557L2.41791 5.7057L4.28011 0.921755L7.73162 0.889648Z" fill="#04CCCF"/>
      <path d="M34.6694 19.2067L27.5416 0.889648H20.6547L28.6814 21.5344L34.6694 19.2067Z" fill="url(#paint0_linear_22_796)"/>
      <path d="M31.2821 28.2126L39.3089 48.8895H46.2119L37.2701 25.9009L31.2821 28.2126Z" fill="url(#paint1_linear_22_796)"/>
      <path d="M17.9095 25.7244L27.5577 0.889648H20.6707L9.78644 28.8709L17.9095 25.7244Z" fill="url(#paint2_linear_22_796)"/>
      <path d="M6.25467 37.957L2.00049 48.8894H8.9035L14.3777 34.7944L6.25467 37.957Z" fill="url(#paint3_linear_22_796)"/>
      <path d="M0.106201 34.3612V38.6153L48.1062 19.9612V15.6909L0.106201 34.3612Z" fill="#04CCCF"/>
    </g>
  </g>
  <defs>
    <linearGradient id="paint0_linear_22_796" x1="27.6595" y1="1.13663" x2="27.6595" y2="50.3443" gradientUnits="userSpaceOnUse">
      <stop offset="0.1385" stop-color="#03D1CF" stop-opacity="0.988"/>
      <stop offset="1" stop-color="#4E09F8"/>
    </linearGradient>
    <linearGradient id="paint1_linear_22_796" x1="38.7433" y1="1.13644" x2="38.7433" y2="50.3442" gradientUnits="userSpaceOnUse">
      <stop offset="0.1385" stop-color="#03D1CF" stop-opacity="0.988"/>
      <stop offset="1" stop-color="#4E09F8"/>
    </linearGradient>
    <linearGradient id="paint2_linear_22_796" x1="18.6724" y1="1.13663" x2="18.6724" y2="50.3443" gradientUnits="userSpaceOnUse">
      <stop offset="0.1385" stop-color="#03D1CF" stop-opacity="0.988"/>
      <stop offset="1" stop-color="#4E09F8"/>
    </linearGradient>
    <linearGradient id="paint3_linear_22_796" x1="8.19119" y1="1.13642" x2="8.19119" y2="50.3442" gradientUnits="userSpaceOnUse">
      <stop offset="0.1385" stop-color="#03D1CF" stop-opacity="0.988"/>
      <stop offset="1" stop-color="#4E09F8"/>
    </linearGradient>
    <clipPath id="clip0_22_796">
      <rect width="161" height="48" fill="white" transform="translate(0.106201 0.889648)"/>
    </clipPath>
  </defs>
</svg>