<svg width="37" height="36" viewBox="0 0 37 36" fill="none" xmlns="http://www.w3.org/2000/svg">
<g clip-path="url(#clip0_9_1055)">
<path d="M33.7886 6.1232L31.3777 8.43845C31.2757 8.51588 31.1965 8.61957 31.1488 8.73845C31.101 8.85733 31.0865 8.98694 31.1066 9.11345V26.1122C31.0845 26.2388 31.0982 26.369 31.1461 26.4883C31.194 26.6075 31.2742 26.711 31.3777 26.7872L33.7402 29.098V29.6098H21.885V29.116L24.3262 26.7456C24.567 26.5048 24.567 26.434 24.567 26.0706V12.3208L17.7765 29.5581H16.863L8.9576 12.3208V23.8723C8.92474 24.1128 8.9474 24.3575 9.02385 24.5878C9.1003 24.8182 9.22849 25.0279 9.3986 25.201L12.5722 29.0485V29.5603H3.5531V29.0485L6.72673 25.201C6.89459 25.0277 7.01932 24.8173 7.09085 24.5869C7.16238 24.3565 7.1787 24.1125 7.13848 23.8746V10.513C7.15912 10.3308 7.13577 10.1463 7.07039 9.97504C7.00501 9.80376 6.89951 9.65065 6.76273 9.52858L3.93448 6.1232V5.61133H12.7039L19.4752 20.476L25.431 5.62595H33.7886V6.1232Z" fill="#91929E"/>
</g>
<defs>
<clipPath id="clip0_9_1055">
<rect width="36" height="36" fill="white" transform="translate(0.599976)"/>
</clipPath>
</defs>
</svg>
