<svg xmlns="http://www.w3.org/2000/svg" width="65" height="65" viewBox="0 0 65 65" fill="none">
  <path fill-rule="evenodd" clip-rule="evenodd" d="M25.2275 1.76833C24.0559 0.596756 22.1564 0.596756 20.9848 1.76833C19.8133 2.9399 19.8133 4.8394 20.9848 6.01097L23.8635 8.88966H13.1062C5.9265 8.88966 0.106201 14.7099 0.106201 21.8896V28.8896C0.106201 31.1105 1.3128 33.0495 3.1062 34.0869V49.8896C3.1062 58.174 9.82193 64.8896 18.1062 64.8896H46.1062C54.3905 64.8896 61.1062 58.174 61.1062 49.8896V46.8896C61.1062 45.2328 59.7631 43.8896 58.1062 43.8896C56.4493 43.8896 55.1062 45.2328 55.1062 46.8896V49.8896C55.1062 54.8602 51.0768 58.8896 46.1062 58.8896H18.1062C13.1356 58.8896 9.1062 54.8602 9.1062 49.8896V34.8896H58.1062C61.4199 34.8896 64.1062 32.2033 64.1062 28.8896V21.8896C64.1062 14.7099 58.2859 8.88966 51.1062 8.88966H40.8339L43.7126 6.01097C44.8842 4.8394 44.8842 2.9399 43.7126 1.76833C42.541 0.596756 40.6415 0.596755 39.47 1.76833L32.3487 8.88956L25.2275 1.76833ZM58.1062 28.8896H6.1062V21.8896C6.1062 18.0236 9.24021 14.8896 13.1062 14.8896H51.1062C54.9722 14.8896 58.1062 18.0236 58.1062 21.8896V28.8896Z" fill="url(#paint0_linear_22_584)"/>
  <defs>
    <linearGradient id="paint0_linear_22_584" x1="32.1073" y1="1.45456" x2="32.1073" y2="114.005" gradientUnits="userSpaceOnUse">
      <stop offset="0.1385" stop-color="#03D1CF" stop-opacity="0.988"/>
      <stop offset="1" stop-color="#4E09F8"/>
    </linearGradient>
  </defs>
</svg>