<svg xmlns="http://www.w3.org/2000/svg" width="16" height="21" viewBox="0 0 16 21" fill="none">
  <path d="M1.0147 6.77171L7.09903 1.18279C7.52474 0.791936 8.17698 0.791936 8.6002 1.18279L14.7617 6.84391C15.0853 7.14016 15.1924 7.60569 15.0331 8.01397C14.8737 8.42225 14.4804 8.69111 14.0423 8.69111H12.4241C11.8117 8.69111 11.3138 9.18901 11.3138 9.80143V11.7606C11.3138 15.2808 7.84837 20.8896 1.75408 20.8896C4.1664 17.5412 4.5946 16.7396 4.5946 11.7581V9.80143C4.5946 9.18901 4.0967 8.69111 3.48428 8.69111H1.76155C1.30597 8.69111 0.897692 8.41229 0.730896 7.98659C0.566589 7.56337 0.678617 7.08041 1.0147 6.77171Z" fill="#3EE875"/>
</svg>