<svg xmlns="http://www.w3.org/2000/svg" width="33" height="33" viewBox="0 0 33 33" fill="none">
  <g clip-path="url(#clip0_22_690)">
    <path d="M16.1062 32.8896C24.9062 32.8896 32.1062 25.6896 32.1062 16.8896C32.1062 8.08965 24.9062 0.889648 16.1062 0.889648C7.3062 0.889648 0.106201 8.08965 0.106201 16.8896C0.106201 25.6896 7.2262 32.8896 16.1062 32.8896Z" fill="#2775CA"/>
    <path d="M20.5061 19.4498C20.5061 17.1298 19.0661 16.3298 16.2661 16.0098C14.2661 15.7698 13.8661 15.2098 13.8661 14.2498C13.8661 13.2898 14.5061 12.7298 15.8661 12.7298C17.0661 12.7298 17.7061 13.1298 18.1061 14.1698C18.1861 14.3298 18.3461 14.4898 18.5861 14.4898H19.6261C19.8661 14.4898 20.1061 14.3298 20.1061 14.0098V13.9298C19.8661 12.4098 18.5861 11.2898 17.0661 11.2098V9.6098C17.0661 9.3698 16.8261 9.1298 16.5061 9.0498H15.4661C15.2261 9.0498 14.9861 9.2898 14.9061 9.6098V11.1298C12.9061 11.3698 11.6261 12.7298 11.6261 14.4098C11.6261 16.6498 12.9861 17.4498 15.7861 17.8498C17.6261 18.1698 18.2661 18.5698 18.2661 19.6898C18.2661 20.8098 17.3061 21.5298 16.0261 21.5298C14.2661 21.5298 13.7061 20.8098 13.4661 19.7698C13.3861 19.5298 13.2261 19.3698 12.9861 19.3698H11.8661C11.6261 19.3698 11.3861 19.5298 11.3861 19.8498V19.9298C11.6261 21.6098 12.7461 22.8098 14.9061 23.1298V24.7298C14.9061 24.9698 15.1461 25.2098 15.4661 25.2898H16.4261C16.6661 25.2898 16.9061 25.0498 16.9861 24.7298V23.1298C19.1461 22.6498 20.5061 21.2098 20.5061 19.4498Z" fill="white"/>
    <path d="M12.7461 26.4093C7.54614 24.4893 4.90614 18.8093 6.82614 13.6093C7.86614 10.8893 10.0261 8.6493 12.7461 7.6893C12.9861 7.6093 13.1461 7.2893 13.1461 7.0493V6.0893C13.1461 5.8493 12.9861 5.6093 12.7461 5.5293C12.6661 5.5293 12.5861 5.5293 12.5061 5.6093C6.18614 7.6093 2.66614 14.4093 4.74614 20.6493C5.94614 24.3293 8.82614 27.2893 12.5061 28.4093C12.6661 28.4893 12.9861 28.4893 13.0661 28.2493C13.0661 28.2493 13.0661 28.1693 13.1461 28.1693C13.2261 28.0893 13.2261 28.0093 13.2261 27.9293V26.9693C13.0661 26.8093 12.9061 26.5693 12.7461 26.4093ZM19.7861 5.6093C19.6261 5.5293 19.3061 5.5293 19.2261 5.7693C19.2261 5.7693 19.2261 5.8493 19.1461 5.8493C19.0661 5.9293 19.0661 6.0093 19.0661 6.0893V7.0493C19.0661 7.2893 19.2261 7.5293 19.4661 7.6893C24.6661 9.6093 27.3061 15.2893 25.3861 20.4893C24.3461 23.2093 22.1861 25.4493 19.4661 26.4093C19.2261 26.4893 19.0661 26.8093 19.0661 27.0493V28.0893C19.0661 28.3293 19.2261 28.5693 19.4661 28.6493C19.5461 28.6493 19.6261 28.6493 19.7061 28.5693C26.0261 26.4893 29.5461 19.7693 27.4661 13.3693C26.3461 9.6893 23.4661 6.8093 19.7861 5.6093Z" fill="white"/>
  </g>
  <defs>
    <clipPath id="clip0_22_690">
      <rect width="32" height="32" fill="white" transform="translate(0.106201 0.889648)"/>
    </clipPath>
  </defs>
</svg>