<svg xmlns="http://www.w3.org/2000/svg" width="32" height="33" viewBox="0 0 32 33" fill="none">
  <g clip-path="url(#clip0_22_671)">
    <path d="M31.1479 20.1322C29.0544 28.4328 20.6808 33.4752 12.3846 31.4583C4.0109 29.3637 -1.02881 20.9856 1.06461 12.6849C3.15803 4.38433 11.5317 -0.73567 19.8278 1.35888C28.2015 3.45342 33.2412 11.8316 31.1479 20.1322Z" fill="#50AF95"/>
    <path d="M18.0446 18.5033C17.967 18.5033 17.3468 18.5809 16.1062 18.5809C15.0982 18.5809 14.4004 18.5809 14.1678 18.5033C10.3686 18.3482 7.4999 17.65 7.4999 16.8742C7.4999 16.0985 10.3686 15.4003 14.1678 15.2451V17.8051C14.4004 17.8051 15.0982 17.8827 16.1062 17.8827C17.2692 17.8827 17.8895 17.8051 17.967 17.8051V15.1676C21.7662 15.3227 24.6349 16.0209 24.6349 16.7966C24.6349 17.5724 21.8437 18.3482 18.0446 18.5033ZM18.0446 14.9348V12.6076H23.3944V9.03906H8.89552V12.6076H14.2454V14.9348C9.90346 15.1676 6.64703 16.0209 6.64703 17.0294C6.64703 18.0379 9.90346 18.8912 14.2454 19.1239V26.5712H18.122V19.1239C22.4639 18.8912 25.6429 18.0379 25.6429 17.0294C25.6429 16.0209 22.3865 15.1676 18.0446 14.9348Z" fill="white"/>
  </g>
  <defs>
    <clipPath id="clip0_22_671">
      <rect width="31.0303" height="32" fill="white" transform="translate(0.591064 0.889648)"/>
    </clipPath>
  </defs>
</svg>