<svg width="33" height="33" viewBox="0 0 33 33" fill="none" xmlns="http://www.w3.org/2000/svg">
<path d="M2.33666 24.0809L2.03604 23.5798H6.2447L6.34491 23.68C10.1527 29.2916 17.8686 30.7947 23.4802 26.8866C27.1878 24.3815 29.1919 20.0726 28.8913 15.6635H21.3758L23.5804 21.8763L20.8748 25.5839L16.0649 11.9559H31.8975L31.9977 12.1563C32.1981 12.7575 32.2983 13.3588 32.3985 13.96C32.5989 14.8619 32.5989 15.7637 32.5989 16.6656C32.5989 24.4817 26.9874 31.1955 19.2715 32.4982C18.4699 32.6986 17.568 32.7988 16.6661 32.7988C10.5536 32.7988 5.04223 29.3918 2.33666 24.0809ZM5.04223 21.4755H1.33459L1.23438 21.2751C1.03397 20.6738 0.933764 20.0726 0.833557 19.4714C-0.669535 10.7534 5.24264 2.43633 13.9606 1.03344C20.8748 -0.169037 27.6888 3.33819 30.8954 9.55097L31.0958 10.052H26.8872V9.75139C22.9791 4.13984 15.3635 2.73695 9.65172 6.54479C6.04429 9.04994 3.93996 13.2586 4.34078 17.6677H11.8562L9.65172 11.5551L12.3573 7.84747L17.1672 21.4755H5.04223Z" fill="url(#paint0_linear_9_1024)"/>
<defs>
<linearGradient id="paint0_linear_9_1024" x1="26.0413" y1="3.35451" x2="7.60836" y2="29.7401" gradientUnits="userSpaceOnUse">
<stop stop-color="#03D1CF" stop-opacity="0.988"/>
<stop offset="1" stop-color="#4E09F8"/>
</linearGradient>
</defs>
</svg>
