<svg width="37" height="30" viewBox="0 0 37 30" fill="none" xmlns="http://www.w3.org/2000/svg">
<path d="M32.8997 7.67186C34.3392 6.61632 35.5902 5.32532 36.6 3.85329C35.2504 4.44305 33.8204 4.82787 32.3571 4.995C33.8973 4.07993 35.0506 2.63442 35.601 0.929573C34.1551 1.79025 32.5707 2.39322 30.9184 2.71157C30.2278 1.97404 29.3928 1.38658 28.4653 0.98577C27.5378 0.584962 26.5378 0.37939 25.5274 0.381858C24.5583 0.381351 23.5985 0.571861 22.7031 0.942497C21.8076 1.31313 20.994 1.85662 20.3087 2.5419C19.6235 3.22718 19.08 4.04081 18.7093 4.93626C18.3387 5.83172 18.1482 6.79144 18.1487 7.76057C18.1517 8.3289 18.2129 8.89542 18.3313 9.45129C15.395 9.3028 12.5227 8.53861 9.9008 7.20829C7.27893 5.87797 4.96605 4.01126 3.11226 1.72929C2.4498 2.8599 2.1026 4.14746 2.10683 5.45786C2.1059 6.67381 2.40569 7.87112 2.97951 8.94316C3.55333 10.0152 4.38336 10.9287 5.39569 11.6023C4.22576 11.5574 3.08299 11.2367 2.06055 10.6663V10.7576C2.05842 12.4619 2.64635 14.1144 3.72447 15.4344C4.80259 16.7544 6.30441 17.6605 7.97483 17.9987C7.34106 18.1656 6.68878 18.252 6.0334 18.2559C5.56662 18.2527 5.10073 18.2145 4.63969 18.1414C5.11542 19.605 6.03612 20.8836 7.27336 21.7989C8.5106 22.7141 10.0027 23.2204 11.5414 23.247C8.92922 25.2972 5.70262 26.4077 2.38198 26.3996C1.78668 26.4035 1.19166 26.3726 0.599976 26.307C3.97855 28.4797 7.91281 29.6303 11.9297 29.6203C25.4991 29.6203 32.9228 18.3806 32.9228 8.62714C32.9228 8.307 32.9228 7.98814 32.8997 7.67186Z" fill="#91929E"/>
</svg>
