<svg width="33" height="36" viewBox="0 0 33 36" fill="none" xmlns="http://www.w3.org/2000/svg">
<path d="M21.7473 17.1004C21.7697 16.5924 21.5895 16.0963 21.2462 15.7212C20.9029 15.3462 20.4246 15.1228 19.9167 15.1004C19.6647 15.1108 19.4172 15.1709 19.1885 15.2771C18.9598 15.3833 18.7543 15.5336 18.5837 15.7194C18.4132 15.9052 18.2809 16.1228 18.1946 16.3598C18.1083 16.5967 18.0696 16.8484 18.0807 17.1004C18.0615 17.6084 18.2435 18.1034 18.5873 18.4779C18.9311 18.8524 19.4089 19.0761 19.9167 19.1004C20.4246 19.0779 20.9029 18.8545 21.2462 18.4795C21.5895 18.1044 21.7697 17.6083 21.7473 17.1004ZM13.3473 15.1004C13.0953 15.1108 12.8479 15.1709 12.6192 15.2771C12.3904 15.3833 12.1849 15.5336 12.0144 15.7194C11.8438 15.9052 11.7116 16.1228 11.6253 16.3598C11.539 16.5967 11.5002 16.8484 11.5113 17.1004C11.4921 17.6075 11.6735 18.1018 12.0161 18.4761C12.3588 18.8505 12.8351 19.0748 13.342 19.1004C13.594 19.0899 13.8414 19.0298 14.0701 18.9236C14.2989 18.8174 14.5044 18.6671 14.6749 18.4813C14.8455 18.2955 14.9777 18.0779 15.064 17.8409C15.1504 17.604 15.1891 17.3523 15.178 17.1004C15.1905 16.8481 15.1528 16.5958 15.067 16.3582C14.9812 16.1206 14.8491 15.9025 14.6782 15.7164C14.5074 15.5303 14.3013 15.38 14.0719 15.2743C13.8425 15.1685 13.5944 15.1094 13.342 15.1004H13.3473ZM32.3553 3.70702C32.3566 3.2212 32.2621 2.73989 32.0772 2.29059C31.8924 1.84129 31.6209 1.4328 31.2781 1.08846C30.9354 0.744125 30.5282 0.470681 30.0798 0.283752C29.6314 0.0968235 29.1505 7.27092e-05 28.6647 -0.000976562H4.54066C4.05472 7.24781e-05 3.57375 0.0968672 3.12523 0.28388C2.67671 0.470892 2.26945 0.744455 1.9267 1.08893C1.58396 1.43341 1.31245 1.84206 1.1277 2.29151C0.942957 2.74096 0.848588 3.22242 0.849991 3.70836V28.0444C0.848764 28.5302 0.943262 29.0115 1.12809 29.4608C1.31291 29.9101 1.58445 30.3186 1.92717 30.6629C2.2699 31.0073 2.67711 31.2807 3.12554 31.4676C3.57397 31.6546 4.05483 31.7513 4.54066 31.7524H24.9527L23.998 28.419C29.266 33.3164 27.8153 31.9897 32.35 35.9977L32.3553 3.70702ZM27.226 20.7737C26.6002 21.6439 25.7712 22.348 24.8113 22.8248C23.8514 23.3016 22.7895 23.5367 21.718 23.5097C21.718 23.5097 21.07 22.7364 20.53 22.051C21.8331 21.7426 22.9854 20.9837 23.7833 19.9084C23.1361 20.341 22.4419 20.6988 21.714 20.975C19.9115 21.709 17.9683 22.0329 16.0252 21.9231C14.082 21.8134 12.1877 21.2727 10.4793 20.3404C10.4433 20.3164 10.006 20.0737 9.74066 19.8897C10.5112 20.9432 11.6257 21.6945 12.8913 22.0137C12.358 22.6977 11.6913 23.5084 11.6913 23.5084C10.6213 23.5379 9.56048 23.3037 8.60228 22.8266C7.64408 22.3495 6.81794 21.644 6.19666 20.7724C6.25501 17.123 7.1413 13.5346 8.78866 10.2777C10.2382 9.13955 12.0053 8.4794 13.846 8.38836L14.026 8.60436C12.2937 9.03446 10.6776 9.84116 9.29266 10.967C9.29266 10.967 9.69266 10.751 10.3593 10.4457C12.4921 9.50156 14.8125 9.0577 17.1431 9.14806C19.4737 9.23842 21.7528 9.8606 23.806 10.967C22.4905 9.89603 20.9626 9.11662 19.3233 8.68036L19.5753 8.39236C21.416 8.4834 23.1831 9.14355 24.6327 10.2817C26.278 13.5377 27.1629 17.1247 27.2207 20.7724L27.226 20.7737Z" fill="#91929E"/>
</svg>
